<?xml version="1.0" encoding="UTF-8"?>
<svg xmlns="http://www.w3.org/2000/svg" xmlns:xlink="http://www.w3.org/1999/xlink" width="127pt" height="27pt" viewBox="0 0 127 27" version="1.1">
<g id="surface1">
<path style=" stroke:none;fill-rule:evenodd;fill:rgb(1.568627%,74.117647%,79.607843%);fill-opacity:1;" d="M 55.613281 8.113281 C 55.601562 9.347656 55.625 15.914062 55.648438 18.125 L 55.6875 21.136719 L 56.058594 21.105469 C 56.265625 21.089844 56.441406 21.050781 56.453125 21.019531 C 56.460938 20.988281 56.507812 20.964844 56.550781 20.964844 C 56.820312 20.964844 57.558594 20.265625 57.785156 19.800781 C 57.847656 19.667969 57.925781 19.515625 57.957031 19.457031 C 57.988281 19.398438 58.027344 19.105469 58.039062 18.808594 L 58.0625 18.265625 L 61.574219 18.265625 C 65.050781 18.265625 65.085938 18.265625 65.089844 18.160156 C 65.089844 18.101562 65.089844 17.589844 65.089844 17.019531 C 65.089844 16.453125 65.089844 15.953125 65.089844 15.910156 C 65.085938 15.839844 64.660156 15.828125 61.570312 15.828125 L 58.050781 15.828125 L 58.050781 8.046875 L 56.832031 8.046875 C 55.894531 8.046875 55.613281 8.0625 55.613281 8.113281 M 66.515625 8.113281 C 66.515625 8.148438 66.515625 8.839844 66.515625 9.648438 L 66.519531 11.117188 L 63.03125 11.117188 C 61.109375 11.117188 59.503906 11.132812 59.457031 11.148438 C 59.347656 11.191406 59.328125 13.433594 59.4375 13.542969 C 59.484375 13.589844 60.351562 13.605469 63.007812 13.605469 L 66.515625 13.605469 L 66.515625 21.125 L 67.460938 21.125 L 68.0625 20.453125 C 68.390625 20.082031 68.75 19.6875 68.859375 19.574219 L 69.054688 19.367188 L 69.054688 13.792969 C 69.054688 10.722656 69.042969 8.175781 69.023438 8.128906 C 68.980469 8.019531 66.515625 8 66.515625 8.113281 M 71.066406 8.082031 C 70.640625 8.222656 70.34375 8.453125 69.867188 9.015625 C 69.683594 9.230469 69.480469 9.703125 69.425781 10.042969 C 69.378906 10.324219 69.34375 18.835938 69.390625 18.878906 C 69.414062 18.902344 70.078125 18.210938 70.539062 17.683594 C 70.726562 17.46875 71.101562 17.046875 71.371094 16.75 L 71.859375 16.210938 L 71.859375 13.929688 C 71.859375 12.597656 71.882812 11.640625 71.910156 11.621094 C 71.9375 11.605469 71.972656 11.527344 71.992188 11.449219 C 72.121094 10.851562 72.515625 10.746094 74.59375 10.746094 C 75.507812 10.746094 76.253906 10.730469 76.253906 10.707031 C 76.253906 10.683594 75.664062 10.074219 74.941406 9.355469 L 73.628906 8.046875 L 72.386719 8.050781 C 71.707031 8.054688 71.109375 8.066406 71.066406 8.082031 M 57.480469 22.117188 L 55.667969 22.128906 L 55.667969 26.628906 L 57.445312 26.628906 C 59.410156 26.628906 59.425781 26.628906 59.425781 26.324219 C 59.421875 26.011719 59.484375 26.019531 57.574219 26.019531 L 55.800781 26.019531 L 55.785156 25.4375 C 55.777344 25.117188 55.78125 24.800781 55.800781 24.738281 L 55.828125 24.617188 L 57.226562 24.617188 C 58.753906 24.617188 58.683594 24.632812 58.683594 24.300781 C 58.683594 23.96875 58.753906 23.980469 57.195312 23.980469 L 55.769531 23.980469 L 55.800781 22.738281 L 57.625 22.710938 L 59.453125 22.683594 L 59.457031 22.445312 C 59.464844 22.226562 59.402344 22.058594 59.328125 22.089844 C 59.308594 22.097656 58.476562 22.109375 57.480469 22.117188 M 59.925781 22.140625 C 59.910156 22.179688 59.90625 23.199219 59.914062 24.40625 L 59.929688 26.601562 L 61.25 26.613281 L 62.574219 26.621094 L 62.835938 26.320312 L 63.101562 26.019531 L 61.902344 25.992188 C 61.242188 25.980469 60.683594 25.949219 60.660156 25.921875 C 60.570312 25.832031 60.582031 24.890625 60.675781 24.75 L 60.761719 24.617188 L 62.25 24.621094 C 63.8125 24.621094 63.976562 24.648438 63.976562 24.882812 C 63.976562 24.992188 64.097656 24.910156 64.3125 24.65625 C 64.492188 24.445312 64.511719 24.398438 64.449219 24.324219 C 64.398438 24.261719 64.378906 24.007812 64.375 23.375 L 64.375 22.507812 L 64.21875 22.34375 C 64.132812 22.253906 63.976562 22.15625 63.875 22.128906 C 63.578125 22.046875 59.957031 22.058594 59.925781 22.140625 M 63.628906 22.796875 C 63.761719 22.929688 63.746094 23.851562 63.609375 23.925781 C 63.375 24.050781 60.765625 23.996094 60.671875 23.863281 C 60.566406 23.714844 60.5625 23.144531 60.667969 22.894531 L 60.742188 22.710938 L 62.144531 22.710938 C 63.347656 22.710938 63.558594 22.722656 63.628906 22.796875 "/>
<path style=" stroke:none;fill-rule:evenodd;fill:rgb(94.509804%,74.509804%,85.098039%);fill-opacity:1;" d="M 78.6875 15.230469 C 78.6875 17.820312 78.632812 18.074219 77.988281 18.394531 C 77.730469 18.523438 72.613281 18.519531 72.402344 18.386719 C 71.898438 18.078125 71.753906 17.769531 71.753906 17.015625 C 71.753906 16.71875 71.734375 16.457031 71.710938 16.441406 C 71.683594 16.429688 71.335938 16.789062 70.929688 17.246094 C 70.523438 17.703125 70.046875 18.242188 69.863281 18.441406 C 69.5 18.839844 69.472656 18.929688 69.613281 19.332031 C 69.839844 19.996094 70.261719 20.53125 70.742188 20.773438 C 71.320312 21.066406 71.359375 21.070312 75.195312 21.070312 C 79.496094 21.070312 79.5 21.070312 80.1875 20.328125 C 80.855469 19.605469 80.910156 19.371094 80.910156 17.078125 L 80.910156 15.246094 L 80.710938 15.027344 C 80.601562 14.90625 80.359375 14.664062 80.167969 14.484375 C 79.980469 14.308594 79.71875 14.054688 79.585938 13.921875 C 79.457031 13.789062 79.199219 13.539062 79.019531 13.371094 L 78.6875 13.058594 L 78.6875 15.230469 M 38.207031 18.390625 L 38.207031 21.074219 L 39.332031 21.058594 L 40.453125 21.042969 L 40.46875 19.503906 L 40.484375 17.960938 L 39.367188 16.855469 C 38.753906 16.246094 38.242188 15.738281 38.230469 15.726562 C 38.214844 15.714844 38.207031 16.914062 38.207031 18.390625 M 81.503906 18.464844 L 81.519531 21.042969 L 82.597656 21.058594 C 83.429688 21.070312 83.691406 21.058594 83.722656 21.003906 C 83.746094 20.96875 83.765625 20.285156 83.765625 19.484375 L 83.765625 18.03125 L 82.667969 16.957031 C 82.066406 16.367188 81.554688 15.882812 81.53125 15.882812 C 81.507812 15.882812 81.496094 17.042969 81.503906 18.464844 M 41.054688 19.011719 C 41.046875 19.386719 41.050781 20.570312 41.0625 21.03125 C 41.0625 21.050781 41.550781 21.070312 42.144531 21.070312 C 43.675781 21.070312 43.675781 21.113281 42.148438 19.59375 L 41.0625 18.515625 L 41.054688 19.011719 M 68.226562 20.28125 C 67.445312 21.152344 67.449219 21.078125 68.21875 21.058594 L 68.871094 21.042969 L 68.886719 20.34375 C 68.894531 19.925781 68.878906 19.640625 68.851562 19.640625 C 68.824219 19.640625 68.542969 19.929688 68.226562 20.28125 M 67.261719 22.273438 C 66.914062 22.453125 66.878906 22.558594 66.875 23.363281 C 66.875 24.597656 66.824219 24.566406 68.921875 24.566406 C 70.957031 24.566406 70.851562 24.523438 70.855469 25.320312 C 70.855469 25.773438 70.84375 25.851562 70.738281 25.96875 L 70.625 26.101562 L 69.085938 26.097656 C 67.433594 26.097656 67.410156 26.09375 67.34375 25.820312 C 67.3125 25.695312 67.28125 25.675781 67.101562 25.675781 C 66.730469 25.675781 66.808594 26.167969 67.21875 26.417969 C 67.472656 26.574219 70.671875 26.582031 70.957031 26.425781 C 71.28125 26.253906 71.339844 26.066406 71.320312 25.277344 C 71.292969 24.089844 71.195312 24.035156 69.117188 24.035156 C 68.054688 24.035156 67.683594 24.050781 67.632812 24.101562 C 67.378906 24.355469 67.160156 23.046875 67.410156 22.746094 C 67.539062 22.589844 70.601562 22.617188 70.746094 22.773438 C 70.808594 22.839844 70.855469 22.933594 70.855469 22.988281 C 70.855469 23.074219 70.890625 23.085938 71.082031 23.074219 C 71.304688 23.054688 71.390625 22.941406 71.316406 22.746094 C 71.304688 22.714844 71.292969 22.671875 71.292969 22.660156 C 71.304688 22.554688 71.128906 22.367188 70.945312 22.285156 C 70.621094 22.136719 67.546875 22.128906 67.261719 22.273438 M 71.828125 22.257812 C 71.8125 22.296875 71.808594 22.398438 71.816406 22.484375 L 71.835938 22.632812 L 72.800781 22.648438 L 73.765625 22.660156 L 73.773438 24.101562 C 73.777344 24.894531 73.777344 25.578125 73.773438 25.625 C 73.769531 25.667969 73.777344 25.875 73.796875 26.085938 L 73.828125 26.46875 L 74.242188 26.46875 L 74.242188 22.660156 L 75.234375 22.648438 L 76.226562 22.632812 L 76.226562 22.207031 L 74.042969 22.195312 C 72.191406 22.183594 71.851562 22.191406 71.828125 22.257812 M 76.71875 24.0625 C 76.710938 25.09375 76.714844 25.941406 76.730469 25.941406 C 76.746094 25.941406 76.789062 26.019531 76.824219 26.117188 C 76.964844 26.5 77.082031 26.523438 78.949219 26.523438 C 81.363281 26.523438 81.167969 26.734375 81.175781 24.109375 L 81.183594 22.207031 L 80.964844 22.191406 L 80.75 22.175781 L 80.75 24.03125 C 80.75 25.816406 80.746094 25.890625 80.644531 25.992188 C 80.484375 26.15625 77.5 26.160156 77.304688 26 L 77.179688 25.898438 L 77.179688 22.183594 L 76.730469 22.183594 L 76.71875 24.0625 M 81.925781 24.339844 L 81.941406 26.496094 L 83.871094 26.511719 C 84.933594 26.519531 85.839844 26.507812 85.882812 26.488281 C 85.925781 26.46875 85.976562 26.449219 85.988281 26.445312 C 86.347656 26.320312 86.359375 26.261719 86.359375 24.355469 C 86.359375 21.972656 86.597656 22.183594 83.878906 22.183594 L 81.914062 22.183594 L 81.925781 24.339844 M 87.152344 24.324219 L 87.152344 26.46875 L 87.605469 26.46875 L 87.578125 24.339844 L 87.550781 22.207031 L 87.152344 22.175781 L 87.152344 24.324219 M 85.839844 22.746094 C 85.996094 22.890625 85.988281 25.835938 85.828125 25.996094 C 85.683594 26.140625 82.535156 26.136719 82.441406 25.992188 C 82.363281 25.871094 82.375 22.800781 82.453125 22.722656 C 82.566406 22.613281 85.714844 22.632812 85.839844 22.746094 M 88.53125 24.425781 C 88.53125 26.695312 88.355469 26.523438 90.679688 26.523438 C 91.5625 26.523438 92.285156 26.503906 92.285156 26.480469 C 92.285156 26.457031 92.210938 26.363281 92.113281 26.273438 L 91.941406 26.105469 L 90.5 26.089844 C 89.285156 26.074219 89.046875 26.0625 89.003906 25.992188 C 88.976562 25.949219 88.953125 25.308594 88.953125 24.53125 L 88.953125 23.144531 L 88.769531 22.953125 C 88.667969 22.851562 88.570312 22.765625 88.558594 22.765625 C 88.542969 22.765625 88.53125 23.511719 88.53125 24.425781 M 64.160156 24.851562 C 63.972656 25.082031 63.972656 25.09375 63.980469 25.515625 C 63.992188 26.050781 63.976562 26.066406 63.449219 26.09375 C 63.042969 26.109375 63.027344 26.117188 62.84375 26.3125 L 62.65625 26.515625 L 63.277344 26.535156 C 64.390625 26.5625 64.503906 26.449219 64.503906 25.300781 C 64.503906 24.511719 64.472656 24.472656 64.160156 24.851562 "/>
<path style=" stroke:none;fill-rule:evenodd;fill:rgb(98.431373%,88.627451%,38.431373%);fill-opacity:1;" d="M 41.0625 9.539062 L 41.0625 18.515625 L 42.136719 19.582031 L 43.207031 20.648438 L 43.21875 12.042969 L 43.234375 3.441406 L 42.167969 2.023438 C 41.582031 1.246094 41.09375 0.597656 41.082031 0.585938 C 41.074219 0.574219 41.0625 4.601562 41.0625 9.539062 M 37.914062 3.578125 C 38.191406 4.21875 38.222656 4.574219 38.128906 5.757812 C 38.019531 7.101562 38.882812 7.742188 39.957031 7.109375 C 40.511719 6.78125 40.59375 5.445312 40.101562 4.726562 C 39.777344 4.253906 38.933594 3.742188 38.199219 3.578125 C 38.121094 3.5625 38.015625 3.53125 37.964844 3.511719 C 37.886719 3.480469 37.878906 3.492188 37.914062 3.578125 M 43.867188 12.679688 L 43.867188 21.019531 L 46.039062 21.019531 L 46.039062 14.074219 C 46.039062 7.378906 46.035156 7.125 45.9375 7.019531 C 45.886719 6.957031 45.40625 6.332031 44.878906 5.625 C 44.347656 4.917969 43.902344 4.339844 43.890625 4.339844 C 43.878906 4.339844 43.867188 8.09375 43.867188 12.679688 M 38.207031 11.929688 L 38.207031 15.703125 L 39.316406 16.804688 L 40.429688 17.90625 L 40.429688 8.152344 L 38.207031 8.152344 L 38.207031 11.929688 M 46.554688 13.40625 C 46.5625 16.753906 46.585938 18.796875 46.621094 19.03125 C 46.734375 19.785156 47.265625 20.507812 47.941406 20.828125 L 48.285156 20.992188 L 51.949219 21.007812 L 55.617188 21.023438 L 55.617188 17.886719 L 55.359375 18.152344 C 54.988281 18.53125 55.019531 18.527344 52.253906 18.527344 C 49.585938 18.527344 49.535156 18.523438 49.199219 18.222656 C 48.734375 17.800781 48.765625 18.171875 48.746094 12.851562 L 48.734375 8.152344 L 46.539062 8.152344 L 46.554688 13.40625 M 75.023438 9.382812 L 76.253906 10.609375 L 77.007812 10.628906 C 78.359375 10.667969 78.644531 10.949219 78.675781 12.28125 L 78.695312 13.050781 L 79.285156 13.625 C 79.613281 13.941406 80.097656 14.417969 80.371094 14.683594 L 80.859375 15.164062 L 80.84375 12.515625 C 80.835938 10.648438 80.8125 9.839844 80.769531 9.789062 C 80.738281 9.75 80.691406 9.65625 80.671875 9.582031 C 80.5625 9.230469 79.984375 8.570312 79.609375 8.375 C 79.199219 8.160156 79.125 8.15625 76.410156 8.15625 L 73.792969 8.152344 L 75.023438 9.382812 M 81.542969 12.003906 L 81.542969 15.855469 L 82.613281 16.902344 L 83.6875 17.949219 L 83.742188 10.667969 L 86.652344 10.652344 C 90.078125 10.632812 89.9375 10.621094 90.273438 10.949219 C 90.78125 11.445312 90.753906 11.128906 90.753906 16.414062 L 90.753906 21.019531 L 92.921875 21.019531 L 92.921875 15.65625 C 92.921875 9.367188 92.953125 9.691406 92.257812 8.90625 C 91.554688 8.113281 91.886719 8.152344 86.285156 8.152344 L 81.542969 8.152344 L 81.542969 12.003906 M 47.792969 22.230469 C 47.734375 22.265625 47.738281 22.28125 47.804688 22.304688 C 47.851562 22.324219 47.890625 22.382812 47.890625 22.4375 C 47.890625 22.492188 47.90625 22.550781 47.925781 22.570312 C 47.945312 22.59375 47.972656 22.660156 47.980469 22.726562 C 47.996094 22.824219 48.164062 23.277344 48.421875 23.902344 C 48.445312 23.960938 48.546875 24.234375 48.648438 24.511719 C 48.75 24.789062 48.863281 25.085938 48.898438 25.171875 C 48.9375 25.261719 48.96875 25.34375 48.972656 25.359375 C 48.980469 25.375 48.996094 25.421875 49.015625 25.464844 C 49.03125 25.507812 49.109375 25.734375 49.191406 25.96875 C 49.425781 26.648438 49.703125 26.769531 49.875 26.257812 C 49.921875 26.113281 49.984375 25.980469 50.011719 25.964844 C 50.035156 25.949219 50.058594 25.894531 50.058594 25.847656 C 50.058594 25.796875 50.144531 25.53125 50.25 25.253906 C 50.527344 24.527344 50.800781 23.8125 50.855469 23.691406 C 50.878906 23.632812 50.953125 23.414062 51.019531 23.203125 C 51.125 22.875 51.277344 22.683594 51.277344 22.875 C 51.277344 22.90625 51.308594 23.007812 51.351562 23.101562 C 51.394531 23.191406 51.480469 23.421875 51.542969 23.613281 C 51.605469 23.800781 51.675781 24.003906 51.699219 24.0625 C 51.722656 24.121094 51.839844 24.429688 51.964844 24.75 C 52.085938 25.070312 52.203125 25.378906 52.230469 25.4375 C 52.253906 25.496094 52.3125 25.664062 52.363281 25.808594 C 52.414062 25.953125 52.484375 26.148438 52.527344 26.242188 C 52.566406 26.332031 52.597656 26.433594 52.597656 26.46875 C 52.597656 26.71875 53.042969 26.488281 53.152344 26.179688 C 53.210938 26.003906 53.277344 25.839844 53.292969 25.808594 C 53.3125 25.78125 53.34375 25.683594 53.367188 25.597656 C 53.421875 25.398438 53.410156 25.425781 53.519531 25.171875 C 53.671875 24.816406 53.695312 24.757812 53.757812 24.539062 C 53.792969 24.421875 53.84375 24.277344 53.871094 24.21875 C 53.972656 23.980469 54.292969 23.132812 54.292969 23.097656 C 54.292969 23.074219 54.328125 22.988281 54.371094 22.90625 C 54.414062 22.828125 54.460938 22.675781 54.480469 22.578125 C 54.5 22.476562 54.539062 22.378906 54.5625 22.363281 C 54.703125 22.277344 54.601562 22.175781 54.386719 22.191406 C 54.171875 22.207031 54.160156 22.21875 54.0625 22.472656 C 53.933594 22.808594 53.917969 22.847656 53.6875 23.4375 C 53.582031 23.707031 53.4375 24.097656 53.371094 24.3125 C 53.300781 24.523438 53.191406 24.816406 53.125 24.960938 C 53.058594 25.109375 53 25.265625 52.988281 25.3125 C 52.902344 25.757812 52.773438 25.761719 52.652344 25.328125 C 52.570312 25.046875 52.429688 24.65625 52.28125 24.3125 C 52.167969 24.054688 52.128906 23.949219 52.0625 23.742188 C 52.027344 23.628906 51.992188 23.519531 51.988281 23.507812 C 51.984375 23.492188 51.941406 23.390625 51.894531 23.28125 C 51.84375 23.175781 51.804688 23.0625 51.804688 23.03125 C 51.804688 23.003906 51.773438 22.902344 51.730469 22.804688 C 51.691406 22.710938 51.617188 22.53125 51.566406 22.40625 C 51.472656 22.1875 51.464844 22.183594 51.222656 22.183594 C 50.894531 22.183594 50.890625 22.191406 50.667969 22.921875 C 50.652344 22.972656 50.578125 23.160156 50.511719 23.320312 C 50.472656 23.40625 50.378906 23.65625 50.296875 23.875 C 49.984375 24.726562 49.9375 24.859375 49.871094 25.015625 C 49.71875 25.386719 49.703125 25.429688 49.695312 25.570312 C 49.679688 25.828125 49.425781 25.558594 49.371094 25.226562 C 49.355469 25.125 49.03125 24.253906 48.917969 24.003906 C 48.839844 23.832031 48.746094 23.585938 48.710938 23.453125 C 48.671875 23.320312 48.578125 23.046875 48.5 22.84375 C 48.421875 22.640625 48.351562 22.449219 48.34375 22.421875 C 48.289062 22.222656 48.238281 22.183594 48.054688 22.183594 C 47.949219 22.183594 47.832031 22.203125 47.792969 22.230469 M 55.324219 22.222656 C 55.289062 22.246094 55.269531 23.019531 55.269531 24.351562 C 55.269531 26.515625 55.273438 26.519531 55.496094 26.523438 L 55.617188 26.523438 L 55.617188 22.183594 L 55.496094 22.183594 C 55.429688 22.183594 55.355469 22.203125 55.324219 22.222656 M 88.898438 22.28125 C 88.796875 22.335938 88.671875 22.457031 88.617188 22.546875 L 88.519531 22.714844 L 88.707031 22.894531 C 88.898438 23.074219 88.898438 23.074219 88.898438 22.945312 C 88.898438 22.617188 88.953125 22.605469 90.675781 22.605469 C 91.652344 22.605469 92.277344 22.625 92.34375 22.660156 C 92.441406 22.714844 92.445312 22.789062 92.445312 24.355469 L 92.445312 25.996094 L 92.328125 26.042969 C 92.261719 26.070312 92.160156 26.105469 92.105469 26.125 C 92.011719 26.15625 92.015625 26.171875 92.167969 26.324219 L 92.335938 26.492188 L 92.527344 26.402344 C 92.890625 26.226562 92.917969 26.078125 92.921875 24.351562 C 92.921875 22.066406 93.039062 22.183594 90.699219 22.183594 C 89.222656 22.183594 89.066406 22.191406 88.898438 22.28125 "/>
<path style=" stroke:none;fill-rule:evenodd;fill:rgb(66.666667%,55.294118%,42.745098%);fill-opacity:1;" d="M 40.941406 0.351562 C 40.921875 0.371094 40.90625 5.054688 40.90625 10.757812 L 40.90625 21.125 L 42.160156 21.109375 L 43.417969 21.097656 L 43.429688 12.308594 L 43.445312 3.519531 L 42.855469 2.726562 C 42.324219 2.007812 42.175781 1.832031 42.175781 1.929688 C 42.175781 1.949219 42.410156 2.265625 42.695312 2.636719 C 42.980469 3.007812 43.242188 3.359375 43.277344 3.425781 C 43.359375 3.578125 43.367188 20.625 43.285156 20.675781 C 43.253906 20.691406 43.246094 20.730469 43.261719 20.757812 C 43.28125 20.789062 43.28125 20.871094 43.261719 20.941406 L 43.230469 21.070312 L 42.152344 21.070312 C 41.339844 21.070312 41.070312 21.054688 41.050781 21.003906 C 40.96875 20.785156 41.003906 0.460938 41.085938 0.527344 C 41.132812 0.566406 41.378906 0.878906 41.628906 1.222656 C 41.882812 1.570312 42.109375 1.851562 42.136719 1.851562 C 42.199219 1.851562 42.15625 1.789062 41.566406 1.015625 C 41.035156 0.320312 41.003906 0.289062 40.941406 0.351562 M 37.746094 3.480469 C 37.761719 3.53125 37.835938 3.722656 37.914062 3.902344 C 38.039062 4.207031 38.050781 4.289062 38.039062 4.855469 C 38.007812 6.320312 38.015625 6.480469 38.121094 6.726562 C 38.226562 6.96875 38.503906 7.304688 38.597656 7.304688 C 38.625 7.304688 38.578125 7.226562 38.488281 7.132812 C 38.078125 6.707031 38.054688 6.566406 38.105469 4.949219 C 38.128906 4.183594 38.121094 4.144531 37.871094 3.613281 C 37.789062 3.4375 37.839844 3.425781 38.257812 3.542969 C 39.171875 3.796875 39.886719 4.277344 40.253906 4.890625 L 40.453125 5.214844 L 40.449219 5.890625 C 40.449219 6.308594 40.46875 6.535156 40.496094 6.480469 C 40.628906 6.246094 40.554688 5.324219 40.375 4.953125 C 40.214844 4.632812 39.605469 3.96875 39.464844 3.96875 C 39.445312 3.96875 39.304688 3.898438 39.160156 3.8125 C 39.011719 3.722656 38.855469 3.652344 38.816406 3.652344 C 38.777344 3.652344 38.679688 3.617188 38.59375 3.574219 C 38.511719 3.53125 38.390625 3.496094 38.328125 3.496094 C 38.265625 3.492188 38.199219 3.46875 38.179688 3.441406 C 38.117188 3.339844 37.714844 3.375 37.746094 3.480469 M 43.761719 12.625 L 43.761719 21.125 L 44.976562 21.125 C 45.6875 21.125 46.203125 21.101562 46.222656 21.074219 C 46.238281 21.046875 46.25 17.933594 46.25 14.160156 C 46.246094 6.976562 46.246094 6.988281 46.035156 6.988281 C 46.003906 6.988281 46.019531 7.042969 46.0625 7.113281 C 46.132812 7.222656 46.140625 8.023438 46.128906 14.140625 L 46.117188 21.042969 L 44.964844 21.058594 L 43.816406 21.074219 L 43.816406 12.683594 C 43.816406 8.03125 43.835938 4.28125 43.859375 4.265625 C 43.886719 4.25 44.332031 4.800781 44.851562 5.484375 C 45.992188 6.984375 45.980469 6.972656 45.984375 6.914062 C 45.984375 6.871094 45.074219 5.613281 44.886719 5.398438 C 44.851562 5.355469 44.617188 5.050781 44.367188 4.726562 C 44.121094 4.398438 43.882812 4.128906 43.839844 4.128906 C 43.773438 4.128906 43.761719 5.234375 43.761719 12.625 M 40.277344 6.816406 C 40.050781 7.257812 39.179688 7.570312 38.777344 7.355469 C 38.691406 7.308594 38.675781 7.3125 38.695312 7.367188 C 38.734375 7.484375 39.554688 7.464844 39.8125 7.339844 C 40.152344 7.175781 40.46875 6.816406 40.414062 6.65625 C 40.402344 6.621094 40.339844 6.691406 40.277344 6.816406 M 38.152344 8.085938 C 38.152344 8.109375 38.675781 8.125 39.316406 8.125 L 40.484375 8.125 L 40.484375 14.550781 C 40.480469 18.082031 40.46875 20.996094 40.453125 21.023438 C 40.433594 21.050781 39.921875 21.070312 39.3125 21.070312 L 38.207031 21.070312 L 38.191406 18.332031 L 38.179688 15.589844 L 38.164062 18.359375 L 38.152344 21.125 L 40.585938 21.125 L 40.585938 8.046875 L 39.371094 8.046875 C 38.699219 8.046875 38.152344 8.066406 38.152344 8.085938 M 46.421875 13.539062 C 46.441406 19.363281 46.464844 19.851562 46.726562 19.851562 C 46.75 19.851562 46.78125 19.90625 46.796875 19.972656 C 46.863281 20.230469 47.675781 20.964844 47.894531 20.964844 C 47.945312 20.964844 47.996094 20.996094 48.007812 21.03125 C 48.035156 21.105469 55.667969 21.160156 55.667969 21.085938 C 55.667969 21.0625 53.996094 21.042969 51.949219 21.042969 L 48.234375 21.042969 L 47.933594 20.898438 C 47.5 20.6875 47.042969 20.242188 46.816406 19.8125 C 46.457031 19.128906 46.457031 19.113281 46.472656 13.289062 L 46.488281 8.125 L 48.789062 8.125 L 48.800781 12.839844 C 48.816406 17.941406 48.796875 17.636719 49.105469 18.046875 C 49.175781 18.148438 49.355469 18.285156 49.503906 18.351562 L 49.769531 18.476562 L 52.253906 18.476562 C 54.558594 18.472656 54.757812 18.46875 54.957031 18.375 C 55.15625 18.285156 55.5625 17.882812 55.5625 17.777344 C 55.5625 17.75 55.585938 17.742188 55.617188 17.761719 C 55.679688 17.800781 55.6875 17.371094 55.625 17.269531 C 55.59375 17.226562 55.558594 17.304688 55.515625 17.492188 C 55.441406 17.828125 55.167969 18.175781 54.886719 18.292969 C 54.546875 18.4375 49.804688 18.40625 49.546875 18.257812 C 49.261719 18.101562 49.21875 18.058594 49.089844 17.816406 L 48.972656 17.601562 L 48.949219 12.839844 L 48.921875 8.074219 L 47.664062 8.058594 L 46.40625 8.046875 L 46.421875 13.539062 M 73.699219 8.136719 C 73.71875 8.195312 73.742188 8.203125 73.753906 8.164062 C 73.785156 8.0625 78.945312 8.074219 79.277344 8.175781 C 79.957031 8.382812 80.527344 8.988281 80.832031 9.835938 L 80.960938 10.191406 L 80.960938 12.65625 C 80.960938 14.011719 80.949219 15.136719 80.933594 15.152344 C 80.917969 15.167969 80.90625 16.019531 80.910156 17.042969 C 80.914062 19.367188 80.863281 19.601562 80.1875 20.328125 C 79.5 21.070312 79.496094 21.070312 75.195312 21.070312 C 71.359375 21.070312 71.320312 21.066406 70.742188 20.773438 C 70.035156 20.417969 69.292969 19.09375 69.597656 18.738281 C 69.636719 18.699219 69.601562 18.71875 69.523438 18.785156 C 69.246094 19.027344 69.660156 20.121094 70.195312 20.550781 C 70.222656 20.574219 70.328125 20.664062 70.429688 20.75 C 70.53125 20.839844 70.640625 20.910156 70.667969 20.910156 C 70.699219 20.914062 70.792969 20.953125 70.882812 21.003906 C 71.027344 21.089844 71.339844 21.097656 75.195312 21.097656 C 79.050781 21.097656 79.359375 21.089844 79.507812 21.003906 C 79.59375 20.953125 79.691406 20.914062 79.722656 20.910156 C 79.757812 20.910156 79.898438 20.804688 80.042969 20.675781 C 80.183594 20.542969 80.316406 20.4375 80.335938 20.4375 C 80.355469 20.4375 80.386719 20.394531 80.402344 20.34375 C 80.417969 20.292969 80.484375 20.191406 80.550781 20.117188 C 80.753906 19.894531 80.945312 19.421875 81.007812 18.992188 C 81.085938 18.449219 81.089844 10.769531 81.011719 10.183594 C 80.90625 9.371094 80.347656 8.578125 79.625 8.214844 L 79.289062 8.046875 L 76.476562 8.046875 C 73.851562 8.046875 73.664062 8.054688 73.699219 8.136719 M 81.386719 14.585938 L 81.386719 21.125 L 83.925781 21.125 L 83.925781 10.796875 L 86.875 10.8125 C 89.710938 10.824219 89.832031 10.832031 89.984375 10.929688 C 90.199219 11.070312 90.378906 11.277344 90.414062 11.421875 C 90.433594 11.488281 90.46875 11.542969 90.492188 11.542969 C 90.519531 11.542969 90.546875 13.589844 90.554688 16.320312 L 90.566406 21.097656 L 93.054688 21.097656 L 93.070312 15.804688 C 93.089844 10 93.089844 10.015625 92.78125 9.386719 C 92.53125 8.875 91.882812 8.207031 91.636719 8.207031 C 91.59375 8.207031 91.542969 8.175781 91.53125 8.140625 C 91.515625 8.085938 90.441406 8.070312 86.449219 8.058594 L 81.386719 8.046875 L 81.386719 14.585938 M 58.074219 11.886719 C 58.074219 13.980469 58.082031 14.832031 58.089844 13.773438 C 58.097656 12.714844 58.097656 11 58.089844 9.960938 C 58.082031 8.921875 58.074219 9.789062 58.074219 11.886719 M 91.328125 8.183594 C 92.007812 8.417969 92.527344 8.957031 92.859375 9.769531 C 92.9375 9.960938 93.054688 20.605469 92.984375 20.980469 C 92.96875 21.0625 92.851562 21.070312 91.832031 21.070312 L 90.699219 21.070312 L 90.699219 16.472656 C 90.699219 11.136719 90.714844 11.289062 90.101562 10.871094 L 89.878906 10.71875 L 83.816406 10.71875 L 83.816406 14.328125 C 83.816406 16.308594 83.804688 17.945312 83.789062 17.960938 C 83.773438 17.976562 83.761719 18.652344 83.765625 19.464844 C 83.765625 20.273438 83.746094 20.96875 83.722656 21.003906 C 83.691406 21.058594 83.429688 21.070312 82.597656 21.058594 L 81.519531 21.042969 L 81.492188 18.421875 C 81.453125 13.875 81.433594 8.238281 81.460938 8.167969 C 81.503906 8.058594 91.007812 8.070312 91.328125 8.183594 M 66.488281 9.660156 C 66.488281 10.476562 66.492188 10.804688 66.503906 10.386719 C 66.511719 9.96875 66.511719 9.300781 66.503906 8.902344 C 66.492188 8.503906 66.488281 8.847656 66.488281 9.660156 M 75.921875 10.328125 C 76.105469 10.515625 76.253906 10.6875 76.253906 10.707031 C 76.253906 10.730469 75.484375 10.753906 74.546875 10.757812 C 72.914062 10.769531 72.945312 10.773438 75.328125 10.796875 C 78.160156 10.832031 77.996094 10.800781 78.324219 11.300781 L 78.5 11.566406 L 78.5 17.550781 L 78.367188 17.789062 C 78.289062 17.929688 78.132812 18.097656 77.980469 18.199219 L 77.722656 18.371094 L 75.203125 18.371094 C 72.734375 18.371094 72.675781 18.367188 72.496094 18.257812 C 72.199219 18.082031 72.023438 17.886719 71.988281 17.699219 C 71.96875 17.601562 71.933594 17.523438 71.90625 17.523438 C 71.882812 17.523438 71.859375 17.234375 71.859375 16.878906 C 71.859375 16.382812 71.847656 16.246094 71.796875 16.292969 C 71.574219 16.519531 71.800781 17.882812 72.109375 18.164062 C 72.472656 18.496094 72.296875 18.476562 75.183594 18.476562 C 78.992188 18.476562 78.714844 18.785156 78.675781 14.535156 C 78.644531 11.328125 78.652344 11.382812 78.175781 10.964844 C 77.898438 10.71875 77.792969 10.695312 76.980469 10.695312 L 76.347656 10.695312 L 75.96875 10.339844 L 75.589844 9.980469 L 75.921875 10.328125 M 69.347656 14.558594 C 69.347656 16.785156 69.351562 17.699219 69.359375 16.582031 C 69.367188 15.46875 69.367188 13.648438 69.359375 12.535156 C 69.351562 11.421875 69.347656 12.332031 69.347656 14.558594 M 66.488281 17.339844 C 66.488281 19.40625 66.496094 20.257812 66.503906 19.234375 C 66.511719 18.210938 66.511719 16.519531 66.503906 15.476562 C 66.496094 14.433594 66.488281 15.269531 66.488281 17.339844 M 65.109375 17.019531 C 65.109375 17.574219 65.117188 17.792969 65.125 17.507812 C 65.136719 17.222656 65.136719 16.769531 65.125 16.5 C 65.117188 16.234375 65.109375 16.46875 65.109375 17.019531 M 59.761719 18.304688 C 60.714844 18.3125 62.261719 18.3125 63.199219 18.304688 C 64.136719 18.296875 63.355469 18.289062 61.460938 18.289062 C 59.570312 18.289062 58.804688 18.296875 59.761719 18.304688 M 68.921875 19.488281 C 68.902344 19.519531 68.882812 19.882812 68.878906 20.296875 L 68.871094 21.042969 L 68.21875 21.058594 C 67.699219 21.070312 67.574219 21.058594 67.605469 21.007812 C 67.636719 20.957031 67.625 20.957031 67.558594 21.011719 C 67.507812 21.050781 67.46875 21.09375 67.46875 21.105469 C 67.46875 21.113281 67.824219 21.125 68.261719 21.125 L 69.054688 21.125 L 69.054688 20.277344 C 69.054688 19.496094 69.027344 19.316406 68.921875 19.488281 M 47.679688 22.152344 C 47.605469 22.242188 47.640625 22.394531 47.734375 22.394531 C 47.78125 22.394531 47.78125 22.375 47.734375 22.320312 C 47.648438 22.214844 47.8125 22.128906 48.101562 22.128906 C 48.277344 22.128906 48.328125 22.152344 48.351562 22.234375 C 48.367188 22.292969 48.398438 22.339844 48.421875 22.339844 C 48.449219 22.339844 48.449219 22.289062 48.425781 22.222656 C 48.367188 22.070312 47.792969 22.015625 47.679688 22.152344 M 50.78125 22.195312 C 50.765625 22.257812 50.761719 22.320312 50.777344 22.335938 C 50.792969 22.351562 50.816406 22.3125 50.835938 22.25 C 50.859375 22.148438 50.90625 22.132812 51.242188 22.117188 L 51.621094 22.097656 L 51.214844 22.085938 C 50.839844 22.078125 50.808594 22.085938 50.78125 22.195312 M 53.988281 22.21875 C 53.957031 22.300781 53.863281 22.546875 53.785156 22.765625 C 53.703125 22.984375 53.617188 23.183594 53.59375 23.210938 C 53.570312 23.238281 53.550781 23.300781 53.550781 23.34375 C 53.550781 23.390625 53.519531 23.488281 53.480469 23.558594 C 53.382812 23.746094 53.339844 23.929688 53.394531 23.929688 C 53.421875 23.929688 53.46875 23.835938 53.5 23.71875 C 53.527344 23.605469 53.578125 23.496094 53.605469 23.480469 C 53.632812 23.460938 53.65625 23.410156 53.65625 23.363281 C 53.65625 23.320312 53.691406 23.207031 53.730469 23.117188 C 53.871094 22.789062 53.96875 22.523438 54 22.367188 C 54.046875 22.167969 54.105469 22.132812 54.386719 22.128906 C 54.664062 22.128906 54.707031 22.207031 54.585938 22.507812 C 54.539062 22.625 54.511719 22.738281 54.527344 22.753906 C 54.578125 22.800781 54.722656 22.386719 54.707031 22.242188 C 54.679688 22.019531 54.070312 22 53.988281 22.21875 M 55.175781 22.113281 C 55.15625 22.132812 55.140625 23.140625 55.140625 24.359375 C 55.140625 26.472656 55.15625 26.742188 55.289062 26.601562 C 55.308594 26.578125 55.292969 26.550781 55.257812 26.539062 C 55.148438 26.5 55.164062 22.242188 55.269531 22.203125 C 55.316406 22.183594 55.351562 22.148438 55.351562 22.125 C 55.351562 22.070312 55.226562 22.058594 55.175781 22.113281 M 67.144531 22.183594 C 66.765625 22.382812 66.566406 23.824219 66.855469 24.273438 C 67.089844 24.636719 66.976562 24.617188 68.804688 24.617188 C 70.847656 24.617188 70.695312 24.558594 70.695312 25.347656 C 70.695312 26.089844 70.796875 26.046875 69.082031 26.046875 C 67.609375 26.046875 67.46875 26.023438 67.46875 25.769531 C 67.46875 25.625 67.464844 25.625 67.101562 25.625 L 66.738281 25.625 L 66.75 25.890625 C 66.761719 26.070312 66.796875 26.1875 66.863281 26.253906 C 66.921875 26.304688 67.019531 26.414062 67.085938 26.488281 L 67.203125 26.628906 L 69.03125 26.628906 C 71.464844 26.628906 71.4375 26.644531 71.4375 25.359375 C 71.4375 24.589844 71.414062 24.476562 71.203125 24.269531 C 70.953125 24.015625 70.917969 24.011719 69.160156 23.980469 L 67.496094 23.957031 L 67.480469 23.394531 C 67.460938 22.648438 67.320312 22.707031 69.117188 22.722656 L 70.617188 22.738281 L 70.675781 22.921875 L 70.738281 23.109375 L 71.410156 23.109375 L 71.425781 22.867188 C 71.445312 22.574219 71.285156 22.304688 71.011719 22.171875 C 70.71875 22.027344 67.421875 22.035156 67.144531 22.183594 M 76.914062 22.113281 L 76.648438 22.132812 L 76.65625 26.148438 L 76.820312 26.304688 C 76.90625 26.390625 76.992188 26.492188 77.003906 26.53125 C 77.046875 26.65625 80.785156 26.632812 80.976562 26.507812 C 81.058594 26.457031 81.121094 26.367188 81.121094 26.308594 C 81.121094 26.253906 81.15625 26.207031 81.199219 26.207031 C 81.269531 26.207031 81.28125 25.941406 81.28125 24.15625 L 81.28125 22.101562 L 80.617188 22.09375 L 80.632812 23.945312 L 80.648438 25.792969 L 80.503906 25.917969 L 80.355469 26.046875 L 78.9375 26.046875 C 78.03125 26.046875 77.523438 26.027344 77.523438 25.992188 C 77.523438 25.964844 77.476562 25.941406 77.421875 25.941406 C 77.320312 25.941406 77.320312 25.882812 77.3125 24.054688 C 77.308594 22.25 77.300781 22.0625 77.214844 22.085938 C 77.195312 22.089844 77.058594 22.105469 76.914062 22.113281 M 81.859375 22.113281 C 81.859375 22.136719 81.859375 23.15625 81.859375 24.378906 L 81.859375 26.601562 L 83.910156 26.617188 C 86.730469 26.632812 86.472656 26.863281 86.472656 24.351562 C 86.476562 21.863281 86.730469 22.085938 83.886719 22.078125 C 82.773438 22.078125 81.859375 22.09375 81.859375 22.113281 M 87.089844 24.296875 C 87.097656 25.507812 87.113281 26.527344 87.128906 26.5625 C 87.160156 26.652344 87.546875 26.648438 87.625 26.558594 C 87.683594 26.484375 87.742188 22.132812 87.683594 22.125 C 87.667969 22.125 87.527344 22.117188 87.367188 22.109375 L 87.074219 22.097656 L 87.089844 24.296875 M 88.867188 22.128906 C 88.738281 22.179688 88.457031 22.445312 88.496094 22.484375 C 88.507812 22.496094 88.585938 22.433594 88.667969 22.34375 C 88.746094 22.253906 88.835938 22.183594 88.871094 22.1875 C 88.992188 22.203125 89.5 22.179688 89.476562 22.164062 C 89.421875 22.117188 88.96875 22.089844 88.867188 22.128906 M 92.242188 22.121094 C 92.195312 22.152344 92.253906 22.175781 92.414062 22.195312 C 92.679688 22.226562 92.839844 22.363281 92.898438 22.617188 C 92.914062 22.699219 92.953125 22.765625 92.980469 22.765625 C 93.058594 22.765625 93.042969 25.925781 92.964844 25.953125 C 92.929688 25.964844 92.898438 26.035156 92.894531 26.105469 C 92.890625 26.179688 92.828125 26.296875 92.757812 26.367188 L 92.628906 26.496094 L 90.867188 26.515625 C 88.339844 26.539062 88.566406 26.75 88.53125 24.339844 C 88.503906 22.695312 88.496094 22.550781 88.421875 22.6875 C 88.363281 22.800781 88.359375 22.839844 88.410156 22.855469 C 88.496094 22.886719 88.507812 25.78125 88.421875 25.78125 C 88.394531 25.78125 88.371094 25.828125 88.371094 25.886719 C 88.371094 25.941406 88.394531 26.003906 88.421875 26.019531 C 88.453125 26.039062 88.476562 26.125 88.476562 26.210938 C 88.476562 26.308594 88.503906 26.363281 88.550781 26.363281 C 88.59375 26.363281 88.644531 26.414062 88.664062 26.476562 C 88.6875 26.550781 88.730469 26.578125 88.800781 26.558594 C 88.855469 26.546875 88.914062 26.554688 88.929688 26.582031 C 88.96875 26.644531 92.316406 26.644531 92.539062 26.582031 C 92.75 26.519531 92.972656 26.285156 92.972656 26.121094 C 92.972656 26.054688 93 25.984375 93.027344 25.96875 C 93.0625 25.945312 93.082031 25.351562 93.082031 24.351562 C 93.082031 23.355469 93.0625 22.757812 93.027344 22.738281 C 93 22.71875 92.972656 22.65625 92.972656 22.597656 C 92.972656 22.347656 92.441406 21.996094 92.242188 22.121094 M 71.753906 22.421875 L 71.753906 22.710938 L 73.714844 22.710938 L 73.714844 24.636719 C 73.714844 26.765625 73.691406 26.628906 74.050781 26.628906 C 74.351562 26.628906 74.347656 26.664062 74.347656 24.605469 L 74.347656 22.710938 L 76.304688 22.710938 L 76.304688 22.128906 L 71.753906 22.128906 L 71.753906 22.421875 M 90.15625 22.167969 C 90.28125 22.179688 90.484375 22.179688 90.605469 22.167969 C 90.730469 22.15625 90.628906 22.148438 90.382812 22.148438 C 90.132812 22.148438 90.03125 22.15625 90.15625 22.167969 M 91.164062 22.167969 C 91.34375 22.179688 91.640625 22.179688 91.824219 22.167969 C 92.003906 22.160156 91.855469 22.148438 91.492188 22.148438 C 91.128906 22.148438 90.980469 22.160156 91.164062 22.167969 M 70.945312 22.285156 C 71.128906 22.367188 71.304688 22.554688 71.292969 22.660156 C 71.292969 22.671875 71.304688 22.714844 71.316406 22.746094 C 71.390625 22.941406 71.304688 23.054688 71.082031 23.074219 C 70.890625 23.085938 70.855469 23.074219 70.855469 22.988281 C 70.855469 22.933594 70.808594 22.839844 70.746094 22.773438 C 70.601562 22.617188 67.539062 22.589844 67.410156 22.746094 C 67.160156 23.046875 67.378906 24.355469 67.632812 24.101562 C 67.683594 24.050781 68.054688 24.035156 69.117188 24.035156 C 71.195312 24.035156 71.292969 24.089844 71.320312 25.277344 C 71.339844 26.066406 71.28125 26.253906 70.957031 26.425781 C 70.671875 26.582031 67.472656 26.574219 67.21875 26.417969 C 66.808594 26.167969 66.730469 25.675781 67.101562 25.675781 C 67.28125 25.675781 67.3125 25.695312 67.34375 25.820312 C 67.410156 26.09375 67.433594 26.097656 69.085938 26.097656 L 70.625 26.101562 L 70.738281 25.96875 C 70.84375 25.851562 70.855469 25.773438 70.855469 25.320312 C 70.851562 24.523438 70.957031 24.566406 68.921875 24.566406 C 66.824219 24.566406 66.875 24.597656 66.875 23.363281 C 66.878906 22.167969 66.855469 22.183594 69.082031 22.183594 C 70.578125 22.183594 70.742188 22.195312 70.945312 22.285156 M 76.226562 22.421875 L 76.226562 22.632812 L 75.234375 22.648438 L 74.242188 22.660156 L 74.242188 26.46875 L 73.828125 26.46875 L 73.796875 26.085938 C 73.777344 25.875 73.769531 25.667969 73.773438 25.625 C 73.777344 25.578125 73.777344 24.894531 73.773438 24.101562 L 73.765625 22.660156 L 72.800781 22.648438 L 71.835938 22.632812 L 71.816406 22.484375 C 71.78125 22.164062 71.660156 22.179688 74.042969 22.195312 L 76.226562 22.207031 L 76.226562 22.421875 M 77.179688 24.039062 L 77.179688 25.898438 L 77.304688 26 C 77.5 26.160156 80.484375 26.15625 80.644531 25.992188 C 80.746094 25.890625 80.75 25.816406 80.75 24.03125 L 80.75 22.175781 L 80.964844 22.191406 L 81.183594 22.207031 L 81.175781 24.109375 C 81.167969 26.734375 81.363281 26.523438 78.949219 26.523438 C 77.082031 26.523438 76.964844 26.5 76.824219 26.117188 C 76.789062 26.019531 76.746094 25.941406 76.730469 25.941406 C 76.714844 25.941406 76.710938 25.09375 76.71875 24.0625 L 76.730469 22.183594 L 77.179688 22.183594 L 77.179688 24.039062 M 86.035156 22.289062 C 86.355469 22.46875 86.359375 22.503906 86.359375 24.355469 C 86.359375 26.261719 86.347656 26.320312 85.988281 26.445312 C 85.976562 26.449219 85.925781 26.46875 85.882812 26.488281 C 85.839844 26.507812 84.933594 26.519531 83.871094 26.511719 L 81.941406 26.496094 L 81.925781 24.339844 L 81.914062 22.183594 L 83.878906 22.183594 C 85.757812 22.183594 85.851562 22.1875 86.035156 22.289062 M 87.578125 24.339844 L 87.605469 26.46875 L 87.152344 26.46875 L 87.152344 22.175781 L 87.550781 22.207031 L 87.578125 24.339844 M 51.59375 22.304688 C 51.59375 22.347656 51.628906 22.410156 51.667969 22.445312 C 51.730469 22.496094 51.738281 22.488281 51.714844 22.394531 C 51.679688 22.265625 51.59375 22.199219 51.59375 22.304688 M 48.421875 22.433594 C 48.433594 22.542969 48.621094 22.886719 48.625 22.800781 C 48.628906 22.75 48.59375 22.636719 48.550781 22.550781 C 48.472656 22.402344 48.414062 22.347656 48.421875 22.433594 M 47.808594 22.601562 C 47.839844 22.792969 47.871094 22.851562 47.917969 22.808594 C 47.933594 22.792969 47.90625 22.699219 47.859375 22.601562 L 47.777344 22.421875 L 47.808594 22.601562 M 50.683594 22.476562 C 50.667969 22.503906 50.636719 22.609375 50.621094 22.710938 L 50.585938 22.898438 L 50.667969 22.714844 C 50.742188 22.550781 50.757812 22.355469 50.683594 22.476562 M 51.78125 22.769531 C 51.800781 22.839844 51.84375 22.957031 51.875 23.03125 C 51.902344 23.101562 51.933594 23.171875 51.9375 23.1875 C 51.976562 23.347656 52.03125 23.453125 52.074219 23.453125 C 52.117188 23.453125 52.09375 23.375 51.929688 22.996094 C 51.890625 22.902344 51.859375 22.804688 51.859375 22.773438 C 51.859375 22.742188 51.832031 22.703125 51.800781 22.683594 C 51.757812 22.65625 51.753906 22.683594 51.78125 22.769531 M 82.453125 22.722656 C 82.375 22.800781 82.363281 25.871094 82.441406 25.992188 C 82.535156 26.136719 85.683594 26.140625 85.828125 25.996094 C 85.988281 25.835938 85.996094 22.890625 85.839844 22.746094 C 85.714844 22.632812 82.566406 22.613281 82.453125 22.722656 M 89.050781 22.75 C 88.988281 22.832031 88.988281 22.835938 89.066406 22.777344 C 89.128906 22.726562 89.519531 22.714844 90.726562 22.722656 L 92.304688 22.738281 L 92.300781 24.3125 C 92.300781 25.183594 92.320312 25.886719 92.347656 25.886719 C 92.421875 25.886719 92.40625 22.796875 92.328125 22.722656 C 92.214844 22.605469 89.144531 22.632812 89.050781 22.75 M 85.738281 22.816406 C 85.820312 22.914062 85.832031 23.078125 85.832031 24.367188 L 85.832031 25.808594 L 85.707031 25.902344 C 85.585938 25.996094 82.804688 26.054688 82.71875 25.96875 C 82.703125 25.953125 82.644531 25.941406 82.589844 25.941406 C 82.535156 25.941406 82.503906 25.917969 82.519531 25.890625 C 82.539062 25.863281 82.527344 25.828125 82.496094 25.808594 C 82.429688 25.765625 82.421875 22.921875 82.492188 22.921875 C 82.519531 22.921875 82.558594 22.875 82.578125 22.816406 C 82.628906 22.652344 85.597656 22.652344 85.738281 22.816406 M 54.453125 22.894531 C 54.414062 22.941406 54.402344 23.011719 54.417969 23.054688 C 54.433594 23.097656 54.425781 23.136719 54.402344 23.136719 C 54.351562 23.136719 54.15625 23.652344 54.167969 23.757812 C 54.171875 23.792969 54.152344 23.824219 54.128906 23.824219 C 54.101562 23.824219 54.082031 23.859375 54.082031 23.902344 C 54.082031 23.945312 54.058594 23.980469 54.035156 23.980469 C 54.007812 23.980469 53.96875 24.066406 53.953125 24.171875 C 53.929688 24.277344 53.882812 24.4375 53.847656 24.53125 C 53.730469 24.8125 53.664062 25.042969 53.703125 25.042969 C 53.722656 25.042969 53.828125 24.777344 53.941406 24.457031 C 54.054688 24.136719 54.167969 23.863281 54.191406 23.847656 C 54.21875 23.832031 54.238281 23.769531 54.238281 23.710938 C 54.238281 23.65625 54.277344 23.546875 54.324219 23.476562 C 54.375 23.402344 54.398438 23.328125 54.378906 23.308594 C 54.359375 23.292969 54.382812 23.234375 54.433594 23.179688 C 54.480469 23.125 54.503906 23.082031 54.488281 23.082031 C 54.46875 23.082031 54.476562 23.023438 54.503906 22.949219 C 54.5625 22.800781 54.546875 22.78125 54.453125 22.894531 M 48.628906 23.019531 C 48.628906 23.070312 48.660156 23.160156 48.699219 23.214844 C 48.738281 23.273438 48.796875 23.417969 48.832031 23.535156 C 48.863281 23.652344 48.929688 23.792969 48.972656 23.851562 C 49.0625 23.96875 49.050781 23.882812 48.945312 23.636719 C 48.917969 23.578125 48.847656 23.394531 48.785156 23.226562 C 48.671875 22.914062 48.628906 22.855469 48.628906 23.019531 M 50.496094 22.960938 C 50.460938 22.976562 50.429688 23.050781 50.429688 23.132812 C 50.429688 23.214844 50.394531 23.3125 50.351562 23.347656 C 50.304688 23.382812 50.269531 23.464844 50.269531 23.527344 C 50.269531 23.585938 50.234375 23.703125 50.191406 23.785156 C 50.152344 23.867188 50.101562 24.015625 50.082031 24.117188 C 50.0625 24.21875 50.027344 24.3125 50 24.332031 C 49.972656 24.347656 49.953125 24.394531 49.953125 24.441406 C 49.953125 24.484375 49.894531 24.640625 49.820312 24.785156 C 49.75 24.929688 49.6875 25.097656 49.6875 25.160156 C 49.6875 25.292969 49.738281 25.257812 49.765625 25.109375 C 49.777344 25.046875 49.835938 24.902344 49.894531 24.785156 C 49.957031 24.664062 50.007812 24.519531 50.007812 24.460938 C 50.007812 24.402344 50.027344 24.351562 50.054688 24.351562 C 50.078125 24.351562 50.117188 24.265625 50.136719 24.15625 C 50.15625 24.046875 50.207031 23.894531 50.25 23.816406 C 50.289062 23.734375 50.332031 23.625 50.339844 23.570312 C 50.347656 23.515625 50.394531 23.40625 50.445312 23.328125 C 50.5 23.25 50.523438 23.160156 50.503906 23.128906 C 50.484375 23.097656 50.5 23.050781 50.539062 23.027344 C 50.625 22.972656 50.589844 22.925781 50.496094 22.960938 M 47.941406 22.984375 C 47.941406 23.070312 48.132812 23.554688 48.222656 23.691406 C 48.277344 23.777344 48.308594 23.800781 48.285156 23.742188 C 48.265625 23.6875 48.199219 23.507812 48.144531 23.347656 C 48.054688 23.097656 47.941406 22.894531 47.941406 22.984375 M 51.128906 23.082031 C 51.101562 23.15625 51.085938 23.234375 51.101562 23.253906 C 51.113281 23.277344 51.097656 23.292969 51.066406 23.292969 C 51.035156 23.292969 51.011719 23.332031 51.011719 23.378906 C 51.011719 23.449219 51.027344 23.453125 51.089844 23.398438 C 51.132812 23.363281 51.171875 23.289062 51.171875 23.234375 C 51.171875 23.179688 51.195312 23.136719 51.222656 23.136719 C 51.253906 23.136719 51.277344 23.191406 51.277344 23.265625 C 51.277344 23.335938 51.296875 23.40625 51.320312 23.421875 C 51.398438 23.46875 51.355469 23.210938 51.265625 23.078125 L 51.179688 22.949219 L 51.128906 23.082031 M 60.605469 23.398438 C 60.605469 23.617188 60.617188 23.707031 60.628906 23.597656 C 60.640625 23.488281 60.640625 23.308594 60.628906 23.203125 C 60.617188 23.09375 60.605469 23.179688 60.605469 23.398438 M 88.964844 24.484375 C 88.960938 25.316406 88.976562 25.949219 89.003906 25.992188 C 89.082031 26.117188 92.074219 26.140625 92.246094 26.023438 C 92.339844 25.957031 92.34375 25.941406 92.273438 25.941406 C 92.226562 25.941406 92.171875 25.964844 92.15625 25.992188 C 92.132812 26.027344 91.582031 26.046875 90.667969 26.046875 C 89.738281 26.046875 89.21875 26.027344 89.21875 25.992188 C 89.21875 25.964844 89.171875 25.941406 89.113281 25.941406 C 89.011719 25.941406 89.007812 25.898438 88.992188 24.5 L 88.976562 23.054688 L 88.964844 24.484375 M 50.902344 23.730469 C 50.863281 23.855469 50.800781 24.003906 50.761719 24.058594 C 50.683594 24.183594 50.675781 24.246094 50.742188 24.246094 C 50.769531 24.246094 50.820312 24.15625 50.855469 24.046875 C 50.890625 23.941406 50.9375 23.824219 50.957031 23.796875 C 51.019531 23.714844 51.058594 23.507812 51.015625 23.507812 C 50.992188 23.507812 50.945312 23.605469 50.902344 23.730469 M 52.097656 23.652344 C 52.140625 23.730469 52.175781 23.847656 52.175781 23.910156 C 52.175781 23.972656 52.210938 24.039062 52.253906 24.054688 C 52.300781 24.070312 52.320312 24.121094 52.300781 24.167969 C 52.285156 24.210938 52.292969 24.277344 52.324219 24.3125 C 52.390625 24.394531 52.703125 25.203125 52.703125 25.292969 C 52.703125 25.328125 52.726562 25.359375 52.753906 25.359375 C 52.78125 25.359375 52.8125 25.402344 52.824219 25.453125 C 52.835938 25.507812 52.871094 25.453125 52.910156 25.3125 C 52.945312 25.1875 52.964844 25.070312 52.949219 25.054688 C 52.933594 25.042969 52.90625 25.089844 52.886719 25.167969 C 52.84375 25.335938 52.757812 25.351562 52.757812 25.1875 C 52.753906 25.121094 52.71875 25.019531 52.675781 24.964844 C 52.632812 24.910156 52.597656 24.808594 52.597656 24.738281 C 52.597656 24.671875 52.574219 24.617188 52.546875 24.617188 C 52.515625 24.617188 52.492188 24.582031 52.492188 24.542969 C 52.492188 24.5 52.464844 24.398438 52.433594 24.316406 C 52.398438 24.234375 52.367188 24.144531 52.363281 24.113281 C 52.359375 24.085938 52.324219 23.992188 52.285156 23.902344 C 52.25 23.816406 52.199219 23.691406 52.171875 23.625 C 52.148438 23.558594 52.101562 23.507812 52.074219 23.507812 C 52.046875 23.507812 52.058594 23.570312 52.097656 23.652344 M 51.457031 23.691406 C 51.46875 23.777344 51.507812 23.921875 51.546875 24.007812 C 51.582031 24.097656 51.605469 24.207031 51.601562 24.253906 C 51.59375 24.296875 51.628906 24.367188 51.675781 24.40625 C 51.761719 24.476562 51.742188 24.265625 51.652344 24.113281 C 51.632812 24.085938 51.578125 23.941406 51.527344 23.796875 C 51.46875 23.628906 51.445312 23.589844 51.457031 23.691406 M 48.3125 23.941406 C 48.34375 23.976562 48.367188 24.042969 48.367188 24.09375 C 48.367188 24.140625 48.402344 24.25 48.445312 24.332031 C 48.488281 24.417969 48.523438 24.460938 48.523438 24.433594 C 48.523438 24.328125 48.382812 23.976562 48.320312 23.925781 C 48.277344 23.890625 48.273438 23.894531 48.3125 23.941406 M 49.003906 24.046875 C 49 24.09375 49.027344 24.152344 49.058594 24.167969 C 49.152344 24.226562 49.164062 24.167969 49.082031 24.058594 C 49.015625 23.96875 49.003906 23.964844 49.003906 24.046875 M 53.316406 24.0625 C 53.257812 24.199219 53.023438 24.847656 53.023438 24.875 C 53.023438 24.984375 53.234375 24.589844 53.265625 24.429688 C 53.285156 24.316406 53.324219 24.207031 53.351562 24.1875 C 53.378906 24.167969 53.394531 24.109375 53.382812 24.054688 C 53.363281 23.960938 53.359375 23.960938 53.316406 24.0625 M 49.160156 24.367188 C 49.164062 24.402344 49.210938 24.527344 49.269531 24.644531 C 49.351562 24.804688 49.371094 24.820312 49.347656 24.710938 C 49.285156 24.417969 49.15625 24.175781 49.160156 24.367188 M 50.65625 24.363281 C 50.578125 24.464844 50.523438 24.722656 50.585938 24.722656 C 50.632812 24.722656 50.761719 24.351562 50.726562 24.316406 C 50.71875 24.304688 50.683594 24.328125 50.65625 24.363281 M 64.398438 24.539062 C 64.347656 24.601562 64.351562 24.617188 64.417969 24.617188 C 64.496094 24.617188 64.503906 24.707031 64.503906 25.300781 C 64.503906 26.453125 64.414062 26.542969 63.273438 26.527344 C 62.800781 26.519531 62.601562 26.535156 62.601562 26.578125 C 62.601562 26.621094 62.816406 26.632812 63.359375 26.621094 C 64.164062 26.601562 64.503906 26.492188 64.503906 26.25 C 64.503906 26.199219 64.53125 26.144531 64.558594 26.125 C 64.644531 26.070312 64.625 24.625 64.539062 24.535156 C 64.472656 24.472656 64.453125 24.472656 64.398438 24.539062 M 51.753906 24.578125 C 51.753906 24.703125 51.808594 24.828125 51.867188 24.828125 C 51.894531 24.828125 51.902344 24.777344 51.882812 24.710938 C 51.835938 24.550781 51.753906 24.464844 51.753906 24.578125 M 50.457031 24.878906 C 50.441406 24.933594 50.414062 25.023438 50.402344 25.078125 C 50.371094 25.214844 50.25 25.53125 50.203125 25.609375 C 50.175781 25.648438 50.179688 25.675781 50.210938 25.675781 C 50.261719 25.675781 50.394531 25.378906 50.507812 25 C 50.546875 24.878906 50.558594 24.777344 50.535156 24.777344 C 50.507812 24.777344 50.476562 24.820312 50.457031 24.878906 M 60.609375 24.851562 C 60.59375 24.894531 60.589844 24.992188 60.601562 25.078125 C 60.617188 25.199219 60.625 25.183594 60.644531 25 C 60.671875 24.769531 60.660156 24.71875 60.609375 24.851562 M 48.628906 24.90625 C 48.628906 24.992188 48.742188 25.199219 48.789062 25.199219 C 48.824219 25.199219 48.8125 25.136719 48.761719 25.042969 C 48.691406 24.898438 48.628906 24.839844 48.628906 24.90625 M 49.394531 24.992188 C 49.480469 25.394531 49.605469 25.65625 49.636719 25.492188 C 49.65625 25.378906 49.632812 25.304688 49.566406 25.234375 C 49.511719 25.183594 49.480469 25.105469 49.496094 25.066406 C 49.511719 25.027344 49.488281 24.964844 49.445312 24.929688 C 49.378906 24.875 49.371094 24.882812 49.394531 24.992188 M 51.96875 25.140625 C 52 25.230469 52.046875 25.304688 52.070312 25.304688 C 52.132812 25.304688 52.070312 25.109375 51.984375 25.035156 C 51.925781 24.984375 51.921875 25.003906 51.96875 25.140625 M 53.558594 25.28125 C 53.488281 25.441406 53.480469 25.535156 53.546875 25.496094 C 53.613281 25.453125 53.714844 25.148438 53.664062 25.148438 C 53.640625 25.148438 53.59375 25.207031 53.558594 25.28125 M 48.824219 25.347656 C 48.839844 25.398438 48.871094 25.484375 48.894531 25.542969 C 48.917969 25.601562 48.980469 25.769531 49.03125 25.914062 C 49.082031 26.058594 49.144531 26.203125 49.167969 26.230469 C 49.191406 26.257812 49.210938 26.328125 49.214844 26.386719 C 49.214844 26.449219 49.238281 26.53125 49.265625 26.578125 C 49.34375 26.695312 49.265625 26.324219 49.175781 26.15625 C 49.140625 26.082031 49.105469 25.980469 49.105469 25.929688 C 49.105469 25.878906 49.058594 25.75 48.996094 25.644531 C 48.9375 25.539062 48.902344 25.421875 48.914062 25.382812 C 48.929688 25.34375 48.910156 25.300781 48.867188 25.285156 C 48.816406 25.265625 48.804688 25.285156 48.824219 25.347656 M 60.605469 25.515625 C 60.605469 25.675781 60.617188 25.742188 60.628906 25.664062 C 60.640625 25.582031 60.640625 25.453125 60.628906 25.371094 C 60.617188 25.292969 60.605469 25.359375 60.605469 25.515625 M 52.070312 25.4375 C 52.070312 25.460938 52.15625 25.703125 52.277344 26.019531 C 52.300781 26.078125 52.363281 26.222656 52.417969 26.339844 C 52.46875 26.453125 52.507812 26.566406 52.503906 26.589844 C 52.496094 26.613281 52.542969 26.628906 52.605469 26.628906 L 52.714844 26.628906 L 52.605469 26.535156 C 52.542969 26.484375 52.480469 26.390625 52.46875 26.328125 C 52.457031 26.265625 52.421875 26.160156 52.386719 26.101562 C 52.355469 26.039062 52.320312 25.945312 52.308594 25.898438 C 52.265625 25.6875 52.070312 25.308594 52.070312 25.4375 M 53.425781 25.636719 C 53.351562 25.839844 53.34375 25.886719 53.394531 25.886719 C 53.464844 25.886719 53.511719 25.757812 53.484375 25.640625 C 53.464844 25.550781 53.460938 25.550781 53.425781 25.636719 M 50.125 25.832031 C 50.140625 25.890625 50.121094 25.945312 50.078125 25.960938 C 50.039062 25.976562 50.007812 26.039062 50.007812 26.101562 C 50.007812 26.226562 49.863281 26.53125 49.773438 26.589844 C 49.734375 26.613281 49.738281 26.628906 49.789062 26.628906 C 49.867188 26.628906 50 26.480469 50.003906 26.382812 C 50.003906 26.351562 50.046875 26.234375 50.09375 26.121094 C 50.199219 25.878906 50.21875 25.730469 50.148438 25.730469 C 50.121094 25.730469 50.113281 25.777344 50.125 25.832031 M 63.859375 25.898438 C 63.847656 25.9375 63.691406 25.96875 63.46875 25.984375 C 63.269531 25.996094 63.082031 26.027344 63.054688 26.050781 C 62.984375 26.117188 63.667969 26.113281 63.832031 26.050781 C 63.980469 25.996094 64.066406 25.835938 63.953125 25.835938 C 63.914062 25.835938 63.871094 25.863281 63.859375 25.898438 M 53.246094 26.09375 C 53.210938 26.195312 53.179688 26.316406 53.179688 26.367188 C 53.179688 26.417969 53.128906 26.496094 53.0625 26.542969 C 52.953125 26.625 52.953125 26.628906 53.046875 26.617188 C 53.160156 26.601562 53.359375 26.15625 53.328125 26 C 53.316406 25.949219 53.285156 25.988281 53.246094 26.09375 "/>
<path style=" stroke:none;fill-rule:evenodd;fill:rgb(77.254902%,69.411765%,30.196078%);fill-opacity:1;" d="M 41.023438 9.484375 L 41.035156 18.503906 L 41.0625 9.546875 L 41.089844 0.59375 L 42.160156 2.015625 L 43.234375 3.441406 L 43.234375 12.074219 C 43.234375 17.816406 43.25 20.695312 43.285156 20.671875 C 43.367188 20.625 43.359375 3.578125 43.277344 3.425781 C 43.242188 3.359375 42.980469 3.007812 42.695312 2.636719 C 42.410156 2.265625 42.175781 1.941406 42.175781 1.910156 C 42.175781 1.878906 42.15625 1.851562 42.132812 1.851562 C 42.109375 1.851562 41.882812 1.570312 41.628906 1.222656 C 41.378906 0.878906 41.132812 0.566406 41.089844 0.53125 C 41.019531 0.472656 41.011719 1.445312 41.023438 9.484375 M 37.835938 3.515625 C 37.835938 3.558594 37.859375 3.609375 37.886719 3.625 C 37.917969 3.644531 37.925781 3.621094 37.90625 3.566406 C 37.875 3.492188 37.890625 3.484375 37.972656 3.515625 C 38.027344 3.535156 38.144531 3.566406 38.230469 3.578125 C 38.335938 3.59375 38.308594 3.574219 38.152344 3.523438 C 37.855469 3.421875 37.835938 3.421875 37.835938 3.515625 M 38.46875 3.648438 C 38.515625 3.671875 38.609375 3.707031 38.683594 3.726562 L 38.8125 3.761719 L 38.683594 3.683594 C 38.609375 3.640625 38.515625 3.605469 38.46875 3.601562 C 38.398438 3.601562 38.398438 3.609375 38.46875 3.648438 M 37.945312 3.757812 C 37.945312 3.800781 37.980469 3.898438 38.023438 3.96875 L 38.105469 4.101562 L 38.070312 3.96875 C 38.019531 3.777344 37.945312 3.652344 37.945312 3.757812 M 39.203125 3.976562 C 39.574219 4.183594 39.984375 4.535156 40.183594 4.816406 C 40.265625 4.933594 40.265625 4.929688 40.179688 4.773438 C 40.003906 4.445312 39.105469 3.753906 38.859375 3.757812 C 38.835938 3.761719 38.988281 3.855469 39.203125 3.976562 M 38.125 4.855469 C 38.121094 5.296875 38.132812 5.460938 38.160156 5.320312 C 38.207031 5.0625 38.207031 4.464844 38.160156 4.296875 C 38.140625 4.230469 38.125 4.480469 38.125 4.855469 M 43.851562 4.269531 C 43.832031 4.289062 43.816406 8.078125 43.816406 12.6875 L 43.816406 21.074219 L 44.964844 21.058594 L 46.117188 21.042969 L 46.128906 14.140625 C 46.140625 8.023438 46.132812 7.222656 46.0625 7.113281 C 46.019531 7.042969 45.992188 6.988281 46.007812 6.988281 C 46.019531 6.988281 45.976562 6.925781 45.90625 6.851562 C 45.835938 6.777344 45.359375 6.160156 44.84375 5.476562 C 44.328125 4.792969 43.898438 4.234375 43.894531 4.234375 C 43.890625 4.234375 43.871094 4.25 43.851562 4.269531 M 44.878906 5.625 C 45.40625 6.332031 45.886719 6.957031 45.9375 7.019531 C 46.035156 7.125 46.039062 7.378906 46.039062 14.074219 L 46.039062 21.019531 L 43.867188 21.019531 L 43.867188 12.679688 C 43.867188 8.09375 43.878906 4.339844 43.890625 4.339844 C 43.902344 4.339844 44.347656 4.917969 44.878906 5.625 M 40.273438 5.007812 C 40.285156 5.164062 40.421875 5.421875 40.421875 5.292969 C 40.421875 5.222656 40.390625 5.117188 40.347656 5.058594 C 40.304688 5.003906 40.269531 4.980469 40.273438 5.007812 M 40.445312 5.824219 C 40.445312 6.042969 40.457031 6.132812 40.46875 6.023438 C 40.476562 5.914062 40.476562 5.734375 40.46875 5.625 C 40.457031 5.515625 40.445312 5.605469 40.445312 5.824219 M 38.0625 6.007812 C 38.0625 6.183594 38.074219 6.25 38.085938 6.152344 C 38.097656 6.058594 38.097656 5.914062 38.085938 5.835938 C 38.074219 5.757812 38.0625 5.835938 38.0625 6.007812 M 40.382812 6.382812 C 40.320312 7.269531 39.035156 7.671875 38.425781 6.996094 C 38.328125 6.890625 38.273438 6.851562 38.304688 6.910156 C 38.574219 7.453125 39.3125 7.566406 39.957031 7.167969 C 40.1875 7.023438 40.441406 6.601562 40.414062 6.410156 C 40.394531 6.304688 40.390625 6.300781 40.382812 6.382812 M 38.105469 6.457031 C 38.105469 6.535156 38.253906 6.839844 38.257812 6.769531 C 38.257812 6.75 38.222656 6.65625 38.179688 6.558594 C 38.140625 6.460938 38.105469 6.414062 38.105469 6.457031 M 38.179688 8.164062 C 38.164062 8.203125 38.160156 9.898438 38.167969 11.9375 L 38.179688 15.644531 L 38.191406 11.898438 L 38.207031 8.152344 L 40.429688 8.152344 L 40.429688 13.058594 C 40.429688 15.757812 40.441406 17.953125 40.457031 17.9375 C 40.46875 17.921875 40.484375 15.707031 40.484375 13.019531 L 40.484375 8.125 L 39.34375 8.113281 C 38.460938 8.101562 38.199219 8.113281 38.179688 8.164062 M 46.496094 8.132812 C 46.414062 8.21875 46.457031 18.480469 46.542969 18.980469 C 46.695312 19.84375 47.203125 20.546875 47.933594 20.898438 L 48.234375 21.042969 L 55.640625 21.042969 L 55.65625 19.457031 C 55.671875 17.648438 55.671875 17.644531 55.464844 17.925781 C 55.050781 18.492188 55.148438 18.476562 52.242188 18.476562 L 49.769531 18.476562 L 49.503906 18.351562 C 49.355469 18.285156 49.175781 18.148438 49.105469 18.046875 C 48.796875 17.636719 48.816406 17.941406 48.800781 12.839844 L 48.789062 8.125 L 47.660156 8.113281 C 47.042969 8.105469 46.515625 8.113281 46.496094 8.132812 M 73.765625 8.140625 C 73.765625 8.164062 73.902344 8.3125 74.070312 8.472656 L 74.375 8.761719 L 73.796875 8.152344 L 76.414062 8.152344 C 79.125 8.15625 79.199219 8.160156 79.609375 8.375 C 79.984375 8.570312 80.5625 9.230469 80.671875 9.582031 C 80.691406 9.65625 80.738281 9.75 80.769531 9.789062 C 80.8125 9.839844 80.835938 10.652344 80.84375 12.53125 C 80.855469 14.210938 80.878906 15.1875 80.910156 15.167969 C 80.941406 15.148438 80.960938 14.179688 80.960938 12.664062 L 80.960938 10.191406 L 80.832031 9.835938 C 80.527344 8.988281 79.957031 8.382812 79.277344 8.175781 C 79.003906 8.09375 73.765625 8.0625 73.765625 8.140625 M 81.472656 8.136719 C 81.421875 8.1875 81.4375 15.625 81.492188 15.75 C 81.515625 15.808594 81.539062 14.15625 81.539062 12.003906 L 81.542969 8.152344 L 86.285156 8.152344 C 91.886719 8.152344 91.554688 8.113281 92.257812 8.90625 C 92.953125 9.691406 92.921875 9.367188 92.921875 15.65625 L 92.921875 21.019531 L 90.753906 21.019531 L 90.753906 16.414062 C 90.753906 11.128906 90.78125 11.445312 90.273438 10.949219 C 89.9375 10.621094 90.078125 10.632812 86.652344 10.652344 L 83.742188 10.667969 L 83.726562 14.335938 C 83.71875 16.710938 83.730469 17.996094 83.765625 17.976562 C 83.796875 17.953125 83.816406 16.621094 83.816406 14.332031 L 83.816406 10.71875 L 89.878906 10.71875 L 90.101562 10.871094 C 90.714844 11.289062 90.699219 11.136719 90.699219 16.472656 L 90.699219 21.070312 L 91.832031 21.070312 C 92.851562 21.070312 92.96875 21.0625 92.984375 20.980469 C 93.054688 20.605469 92.9375 9.960938 92.859375 9.769531 C 92.527344 8.957031 92.007812 8.417969 91.328125 8.183594 C 91.085938 8.097656 81.558594 8.050781 81.472656 8.136719 M 48.746094 12.851562 C 48.769531 19.144531 48.386719 18.527344 52.253906 18.527344 C 55.019531 18.527344 54.988281 18.53125 55.359375 18.152344 L 55.617188 17.886719 L 55.617188 21.023438 L 51.949219 21.007812 L 48.285156 20.992188 L 47.941406 20.828125 C 47.265625 20.507812 46.734375 19.785156 46.621094 19.03125 C 46.585938 18.796875 46.5625 16.753906 46.554688 13.40625 L 46.539062 8.152344 L 48.734375 8.152344 L 48.746094 12.851562 M 76.320312 10.652344 C 76.355469 10.671875 76.660156 10.691406 77 10.691406 C 78.273438 10.695312 78.578125 10.992188 78.640625 12.28125 L 78.671875 12.996094 L 78.664062 12.253906 C 78.65625 11.324219 78.507812 11.003906 77.976562 10.753906 C 77.757812 10.648438 76.164062 10.550781 76.320312 10.652344 M 47.777344 22.183594 C 47.699219 22.226562 47.703125 22.257812 47.816406 22.484375 C 47.882812 22.625 47.941406 22.785156 47.941406 22.847656 C 47.941406 22.90625 47.964844 22.976562 47.992188 23.003906 C 48.046875 23.0625 48.265625 23.644531 48.28125 23.78125 C 48.289062 23.828125 48.316406 23.898438 48.347656 23.9375 C 48.375 23.976562 48.429688 24.117188 48.46875 24.246094 C 48.503906 24.378906 48.570312 24.550781 48.609375 24.628906 C 48.652344 24.707031 48.679688 24.789062 48.671875 24.8125 C 48.667969 24.835938 48.703125 24.929688 48.75 25.019531 C 48.796875 25.113281 48.824219 25.199219 48.804688 25.21875 C 48.789062 25.234375 48.8125 25.265625 48.859375 25.285156 C 48.910156 25.300781 48.933594 25.339844 48.917969 25.367188 C 48.886719 25.414062 49.035156 25.78125 49.082031 25.78125 C 49.121094 25.78125 49.046875 25.5 48.988281 25.425781 C 48.957031 25.386719 48.953125 25.359375 48.972656 25.359375 C 48.996094 25.359375 48.992188 25.328125 48.960938 25.292969 C 48.933594 25.257812 48.808594 24.953125 48.6875 24.617188 C 48.5625 24.28125 48.445312 23.960938 48.421875 23.902344 C 48.144531 23.222656 47.996094 22.824219 47.980469 22.726562 C 47.972656 22.660156 47.945312 22.59375 47.925781 22.570312 C 47.90625 22.550781 47.890625 22.492188 47.890625 22.4375 C 47.890625 22.382812 47.851562 22.324219 47.804688 22.304688 C 47.675781 22.257812 47.824219 22.183594 48.054688 22.183594 C 48.238281 22.183594 48.289062 22.222656 48.34375 22.421875 C 48.351562 22.449219 48.421875 22.640625 48.5 22.84375 C 48.578125 23.046875 48.671875 23.320312 48.710938 23.453125 C 48.746094 23.585938 48.839844 23.832031 48.917969 24.003906 C 49.03125 24.253906 49.355469 25.125 49.371094 25.226562 C 49.425781 25.558594 49.679688 25.828125 49.695312 25.570312 C 49.707031 25.398438 49.714844 25.371094 49.753906 25.328125 C 49.777344 25.304688 49.792969 25.25 49.792969 25.203125 C 49.789062 25.082031 49.679688 25.285156 49.636719 25.488281 C 49.605469 25.65625 49.484375 25.410156 49.394531 24.992188 C 49.378906 24.921875 49.316406 24.757812 49.257812 24.628906 C 49.199219 24.5 49.164062 24.363281 49.179688 24.320312 C 49.195312 24.28125 49.160156 24.222656 49.101562 24.191406 C 49.042969 24.160156 49 24.09375 49.007812 24.046875 C 49.011719 23.996094 48.964844 23.847656 48.902344 23.71875 C 48.84375 23.585938 48.789062 23.453125 48.789062 23.417969 C 48.789062 23.382812 48.757812 23.289062 48.714844 23.207031 C 48.609375 22.992188 48.457031 22.542969 48.453125 22.433594 C 48.449219 22.382812 48.433594 22.339844 48.414062 22.339844 C 48.394531 22.339844 48.367188 22.292969 48.351562 22.234375 C 48.320312 22.117188 47.945312 22.085938 47.777344 22.183594 M 50.851562 22.210938 C 50.851562 22.253906 50.816406 22.304688 50.769531 22.324219 C 50.722656 22.339844 50.703125 22.390625 50.71875 22.433594 C 50.753906 22.523438 50.597656 22.980469 50.519531 23.035156 C 50.492188 23.054688 50.484375 23.097656 50.503906 23.128906 C 50.523438 23.160156 50.5 23.25 50.445312 23.328125 C 50.394531 23.40625 50.347656 23.515625 50.339844 23.570312 C 50.332031 23.625 50.289062 23.734375 50.25 23.816406 C 50.207031 23.894531 50.15625 24.046875 50.136719 24.15625 C 50.117188 24.265625 50.078125 24.351562 50.054688 24.351562 C 50.027344 24.351562 50.007812 24.402344 50.007812 24.460938 C 50.007812 24.519531 49.945312 24.6875 49.871094 24.835938 C 49.796875 24.984375 49.761719 25.097656 49.796875 25.085938 C 49.851562 25.066406 49.917969 24.90625 50.308594 23.851562 C 50.382812 23.644531 50.472656 23.40625 50.511719 23.320312 C 50.578125 23.160156 50.652344 22.972656 50.667969 22.921875 C 50.890625 22.191406 50.894531 22.183594 51.222656 22.183594 C 51.464844 22.183594 51.472656 22.1875 51.566406 22.40625 C 51.617188 22.53125 51.691406 22.710938 51.730469 22.804688 C 51.773438 22.902344 51.804688 23.003906 51.804688 23.03125 C 51.804688 23.0625 51.84375 23.175781 51.894531 23.28125 C 51.941406 23.390625 51.984375 23.492188 51.988281 23.507812 C 52.019531 23.625 52.140625 23.980469 52.1875 24.089844 C 52.433594 24.667969 52.558594 25.003906 52.652344 25.328125 C 52.773438 25.761719 52.902344 25.757812 52.988281 25.3125 C 53 25.265625 53.058594 25.109375 53.125 24.960938 C 53.191406 24.816406 53.300781 24.523438 53.371094 24.3125 C 53.4375 24.097656 53.582031 23.707031 53.6875 23.4375 C 53.917969 22.847656 53.933594 22.808594 54.0625 22.472656 C 54.160156 22.21875 54.171875 22.207031 54.386719 22.191406 C 54.601562 22.175781 54.703125 22.277344 54.5625 22.363281 C 54.539062 22.378906 54.5 22.484375 54.480469 22.59375 C 54.457031 22.703125 54.421875 22.816406 54.398438 22.84375 C 54.378906 22.875 54.339844 22.957031 54.320312 23.03125 C 54.277344 23.164062 53.953125 24.03125 53.871094 24.21875 C 53.84375 24.277344 53.792969 24.421875 53.757812 24.539062 C 53.695312 24.757812 53.671875 24.816406 53.519531 25.171875 C 53.410156 25.425781 53.421875 25.398438 53.367188 25.597656 C 53.34375 25.683594 53.3125 25.78125 53.292969 25.808594 C 53.277344 25.839844 53.210938 26.003906 53.152344 26.179688 C 53.042969 26.488281 52.597656 26.71875 52.597656 26.46875 C 52.597656 26.433594 52.566406 26.332031 52.527344 26.242188 C 52.484375 26.148438 52.414062 25.953125 52.363281 25.808594 C 52.3125 25.664062 52.253906 25.496094 52.230469 25.4375 C 52.203125 25.378906 52.085938 25.070312 51.964844 24.75 C 51.839844 24.429688 51.722656 24.121094 51.699219 24.0625 C 51.675781 24.003906 51.605469 23.800781 51.542969 23.613281 C 51.480469 23.421875 51.394531 23.191406 51.351562 23.101562 C 51.308594 23.007812 51.277344 22.90625 51.277344 22.875 C 51.277344 22.683594 51.125 22.875 51.019531 23.203125 C 50.953125 23.414062 50.878906 23.632812 50.855469 23.691406 C 50.800781 23.8125 50.527344 24.527344 50.25 25.253906 C 50.144531 25.53125 50.058594 25.796875 50.058594 25.847656 C 50.058594 25.894531 50.035156 25.949219 50.011719 25.964844 C 49.984375 25.980469 49.921875 26.113281 49.875 26.257812 C 49.71875 26.722656 49.417969 26.644531 49.234375 26.101562 C 49.179688 25.9375 49.128906 25.847656 49.121094 25.898438 C 49.109375 25.949219 49.132812 26.066406 49.175781 26.164062 C 49.21875 26.261719 49.269531 26.398438 49.285156 26.476562 C 49.371094 26.867188 50.007812 26.539062 50.007812 26.101562 C 50.007812 26.039062 50.039062 25.976562 50.078125 25.960938 C 50.121094 25.945312 50.140625 25.890625 50.125 25.832031 C 50.113281 25.777344 50.125 25.730469 50.160156 25.730469 C 50.191406 25.730469 50.214844 25.710938 50.210938 25.691406 C 50.203125 25.667969 50.21875 25.601562 50.242188 25.542969 C 50.261719 25.484375 50.308594 25.367188 50.339844 25.28125 C 50.40625 25.109375 50.414062 25.085938 50.421875 24.964844 C 50.425781 24.925781 50.460938 24.859375 50.496094 24.820312 C 50.53125 24.78125 50.570312 24.679688 50.578125 24.589844 C 50.589844 24.503906 50.628906 24.394531 50.671875 24.347656 C 50.714844 24.300781 50.730469 24.25 50.714844 24.230469 C 50.695312 24.210938 50.714844 24.144531 50.757812 24.078125 C 50.796875 24.011719 50.863281 23.855469 50.902344 23.730469 C 50.941406 23.605469 50.992188 23.507812 51.015625 23.507812 C 51.035156 23.507812 51.042969 23.457031 51.027344 23.398438 C 51.011719 23.339844 51.019531 23.292969 51.046875 23.292969 C 51.074219 23.292969 51.097656 23.242188 51.105469 23.179688 C 51.125 22.917969 51.335938 23.011719 51.359375 23.292969 C 51.363281 23.335938 51.40625 23.464844 51.453125 23.574219 C 51.503906 23.6875 51.558594 23.847656 51.574219 23.933594 C 51.59375 24.019531 51.628906 24.101562 51.652344 24.117188 C 51.679688 24.132812 51.699219 24.183594 51.699219 24.226562 C 51.699219 24.269531 51.746094 24.410156 51.804688 24.539062 C 51.863281 24.664062 51.917969 24.816406 51.925781 24.875 C 51.933594 24.929688 51.972656 25.015625 52.007812 25.058594 C 52.046875 25.101562 52.082031 25.195312 52.089844 25.261719 C 52.097656 25.328125 52.144531 25.480469 52.195312 25.597656 C 52.246094 25.714844 52.296875 25.847656 52.308594 25.898438 C 52.320312 25.945312 52.355469 26.039062 52.386719 26.101562 C 52.445312 26.207031 52.496094 26.382812 52.507812 26.5 C 52.507812 26.53125 52.535156 26.5625 52.566406 26.566406 C 52.601562 26.570312 52.6875 26.585938 52.765625 26.605469 C 52.9375 26.648438 53.179688 26.5 53.179688 26.355469 C 53.179688 26.296875 53.230469 26.128906 53.292969 25.976562 C 53.445312 25.601562 53.476562 25.515625 53.550781 25.320312 C 53.589844 25.222656 53.636719 25.148438 53.660156 25.148438 C 53.683594 25.148438 53.703125 25.105469 53.703125 25.054688 C 53.703125 24.945312 53.777344 24.675781 53.890625 24.378906 C 53.933594 24.261719 53.972656 24.125 53.972656 24.074219 C 53.972656 24.023438 54 23.980469 54.027344 23.980469 C 54.058594 23.980469 54.082031 23.945312 54.082031 23.902344 C 54.082031 23.859375 54.105469 23.824219 54.136719 23.824219 C 54.167969 23.824219 54.179688 23.804688 54.164062 23.777344 C 54.125 23.714844 54.316406 23.230469 54.363281 23.277344 C 54.386719 23.300781 54.386719 23.277344 54.367188 23.226562 C 54.347656 23.175781 54.359375 23.136719 54.390625 23.136719 C 54.421875 23.136719 54.433594 23.097656 54.417969 23.054688 C 54.398438 23.007812 54.425781 22.929688 54.472656 22.878906 C 54.519531 22.824219 54.542969 22.769531 54.527344 22.753906 C 54.511719 22.738281 54.539062 22.625 54.585938 22.507812 C 54.707031 22.207031 54.664062 22.128906 54.386719 22.128906 C 54.105469 22.132812 54.046875 22.167969 54 22.367188 C 53.96875 22.523438 53.871094 22.789062 53.730469 23.117188 C 53.691406 23.207031 53.65625 23.320312 53.65625 23.363281 C 53.65625 23.410156 53.632812 23.460938 53.605469 23.480469 C 53.578125 23.496094 53.527344 23.605469 53.5 23.71875 C 53.46875 23.835938 53.421875 23.929688 53.398438 23.929688 C 53.375 23.929688 53.367188 23.988281 53.378906 24.0625 C 53.394531 24.132812 53.382812 24.195312 53.351562 24.195312 C 53.324219 24.195312 53.285156 24.296875 53.265625 24.421875 C 53.246094 24.554688 53.175781 24.707031 53.097656 24.792969 C 53.023438 24.871094 52.988281 24.933594 53.019531 24.933594 C 53.050781 24.933594 53.074219 24.960938 53.074219 24.992188 C 53.074219 25.023438 53.054688 25.035156 53.027344 25.015625 C 53 25 52.964844 25.078125 52.945312 25.1875 C 52.90625 25.421875 52.8125 25.605469 52.8125 25.453125 C 52.8125 25.402344 52.785156 25.359375 52.757812 25.359375 C 52.730469 25.359375 52.703125 25.328125 52.703125 25.292969 C 52.703125 25.203125 52.390625 24.394531 52.324219 24.3125 C 52.292969 24.277344 52.285156 24.210938 52.300781 24.167969 C 52.320312 24.121094 52.300781 24.070312 52.253906 24.054688 C 52.210938 24.039062 52.175781 23.972656 52.175781 23.910156 C 52.175781 23.847656 52.140625 23.730469 52.097656 23.652344 C 52.054688 23.566406 52.046875 23.507812 52.078125 23.507812 C 52.105469 23.507812 52.09375 23.46875 52.046875 23.421875 C 52 23.375 51.960938 23.316406 51.957031 23.289062 C 51.949219 23.222656 51.933594 23.175781 51.894531 23.082031 C 51.804688 22.871094 51.710938 22.558594 51.730469 22.539062 C 51.746094 22.527344 51.71875 22.484375 51.675781 22.449219 C 51.628906 22.410156 51.59375 22.324219 51.59375 22.253906 C 51.59375 22.132812 51.578125 22.128906 51.222656 22.128906 C 50.925781 22.128906 50.851562 22.144531 50.851562 22.210938 M 55.285156 22.1875 C 55.199219 22.238281 55.191406 22.398438 55.191406 24.359375 C 55.191406 26.597656 55.191406 26.585938 55.433594 26.617188 C 55.664062 26.648438 55.671875 26.597656 55.65625 24.320312 L 55.640625 22.15625 L 55.617188 26.523438 L 55.496094 26.523438 C 55.273438 26.519531 55.269531 26.515625 55.269531 24.335938 L 55.269531 22.230469 L 55.429688 22.183594 C 55.535156 22.15625 55.554688 22.136719 55.484375 22.136719 C 55.425781 22.132812 55.335938 22.15625 55.285156 22.1875 M 89.679688 22.167969 C 89.746094 22.179688 89.84375 22.179688 89.894531 22.164062 C 89.941406 22.152344 89.890625 22.140625 89.773438 22.144531 C 89.65625 22.144531 89.617188 22.152344 89.679688 22.167969 M 88.652344 22.359375 C 88.542969 22.472656 88.5 22.558594 88.527344 22.605469 C 88.558594 22.65625 88.582031 22.644531 88.605469 22.558594 C 88.628906 22.496094 88.703125 22.40625 88.773438 22.359375 C 88.84375 22.3125 88.898438 22.253906 88.898438 22.230469 C 88.898438 22.140625 88.816406 22.183594 88.652344 22.359375 M 92.5 22.273438 C 92.890625 22.488281 92.921875 22.636719 92.921875 24.351562 C 92.917969 26.042969 92.886719 26.214844 92.554688 26.390625 C 92.355469 26.492188 92.351562 26.515625 92.53125 26.480469 C 92.71875 26.445312 92.886719 26.273438 92.894531 26.105469 C 92.898438 26.035156 92.929688 25.964844 92.964844 25.953125 C 93.042969 25.925781 93.058594 22.765625 92.980469 22.765625 C 92.953125 22.765625 92.914062 22.699219 92.898438 22.617188 C 92.847656 22.402344 92.6875 22.238281 92.488281 22.203125 L 92.3125 22.171875 L 92.5 22.273438 M 89.003906 22.710938 C 88.898438 22.820312 88.851562 23.171875 88.953125 23.109375 C 88.980469 23.089844 89.003906 23.011719 89.003906 22.929688 C 89.003906 22.851562 89.035156 22.757812 89.070312 22.722656 C 89.160156 22.632812 92.238281 22.632812 92.328125 22.722656 C 92.414062 22.808594 92.421875 25.886719 92.335938 25.886719 C 92.304688 25.886719 92.292969 25.910156 92.308594 25.9375 C 92.324219 25.960938 92.300781 26 92.253906 26.015625 C 92.203125 26.035156 92.179688 26.0625 92.195312 26.078125 C 92.210938 26.09375 92.273438 26.082031 92.335938 26.050781 C 92.5 25.960938 92.507812 22.75 92.34375 22.660156 C 92.125 22.542969 89.128906 22.589844 89.003906 22.710938 "/>
</g>
</svg>
